<svg preserveAspectRatio="none" width="100%" height="100%" overflow="visible" style="display: block;" viewBox="0 0 15 14.25" fill="none" xmlns="http://www.w3.org/2000/svg">
<g id="Container">
<path id="Icon" d="M0 6.75L3.75 0L7.5 6.75H0V6.75M3.75 14.25C2.925 14.25 2.21875 13.9562 1.63125 13.3687C1.04375 12.7812 0.75 12.075 0.75 11.25C0.75 10.4125 1.04375 9.70312 1.63125 9.12187C2.21875 8.54062 2.925 8.25 3.75 8.25C4.575 8.25 5.28125 8.54375 5.86875 9.13125C6.45625 9.71875 6.75 10.425 6.75 11.25C6.75 12.075 6.45625 12.7812 5.86875 13.3687C5.28125 13.9562 4.575 14.25 3.75 14.25V14.25M3.75 12.75C4.1625 12.75 4.51562 12.6031 4.80937 12.3094C5.10312 12.0156 5.25 11.6625 5.25 11.25C5.25 10.8375 5.10312 10.4844 4.80937 10.1906C4.51562 9.89688 4.1625 9.75 3.75 9.75C3.3375 9.75 2.98437 9.89688 2.69062 10.1906C2.39687 10.4844 2.25 10.8375 2.25 11.25C2.25 11.6625 2.39687 12.0156 2.69062 12.3094C2.98437 12.6031 3.3375 12.75 3.75 12.75V12.75M2.55 5.25H4.95L3.75 3.09375L2.55 5.25V5.25M8.25 14.25V8.25H14.25V14.25H8.25V14.25M9.75 12.75H12.75V9.75H9.75V12.75V12.75M11.25 6.75C10.5375 6.15 9.94063 5.64375 9.45938 5.23125C8.97813 4.81875 8.59375 4.45625 8.30625 4.14375C8.01875 3.83125 7.8125 3.5375 7.6875 3.2625C7.5625 2.9875 7.5 2.69375 7.5 2.38125C7.5 1.81875 7.69687 1.34375 8.09062 0.95625C8.48437 0.56875 8.975 0.375 9.5625 0.375C9.9 0.375 10.2156 0.453125 10.5094 0.609375C10.8031 0.765625 11.05 0.98125 11.25 1.25625C11.45 0.98125 11.6969 0.765625 11.9906 0.609375C12.2844 0.453125 12.6 0.375 12.9375 0.375C13.525 0.375 14.0156 0.56875 14.4094 0.95625C14.8031 1.34375 15 1.81875 15 2.38125C15 2.69375 14.9375 2.9875 14.8125 3.2625C14.6875 3.5375 14.4813 3.83125 14.1938 4.14375C13.9063 4.45625 13.5219 4.81875 13.0406 5.23125C12.5594 5.64375 11.9625 6.15 11.25 6.75V6.75M11.25 4.78125C12.15 4.03125 12.75 3.5 13.05 3.1875C13.35 2.875 13.5 2.61875 13.5 2.41875C13.5 2.25625 13.4531 2.125 13.3594 2.025C13.2656 1.925 13.1375 1.875 12.975 1.875C12.85 1.875 12.7281 1.90937 12.6094 1.97812C12.4906 2.04687 12.3437 2.16875 12.1687 2.34375L11.25 3.225L10.3313 2.34375C10.1563 2.16875 10.0094 2.04687 9.89062 1.97812C9.77188 1.90937 9.65 1.875 9.525 1.875C9.3625 1.875 9.23438 1.925 9.14062 2.025C9.04688 2.125 9 2.25625 9 2.41875C9 2.61875 9.15 2.875 9.45 3.1875C9.75 3.5 10.35 4.03125 11.25 4.78125V4.78125M11.25 3.31875V3.31875V3.31875V3.31875V3.31875V3.31875V3.31875V3.31875V3.31875V3.31875V3.31875V3.31875V3.31875V3.31875V3.31875V3.31875M3.75 4.1625V4.1625V4.1625V4.1625V4.1625M3.75 11.25V11.25V11.25V11.25V11.25V11.25V11.25V11.25V11.25V11.25M11.25 11.25V11.25V11.25V11.25V11.25V11.25" fill="var(--fill-0, #8D8D8B)"/>
</g>
</svg>
