<svg width="14" height="14" viewBox="0 0 14 14" fill="none" xmlns="http://www.w3.org/2000/svg">
<path d="M6.75 11.25L9.75 8.24998L8.7 7.19998L7.5 8.39998V5.24998H6V8.39998L4.8 7.19998L3.75 8.24998L6.75 11.25ZM1.5 3.74998V12H12V3.74998H1.5ZM1.5 13.5C1.0875 13.5 0.734375 13.3531 0.440625 13.0594C0.146875 12.7656 0 12.4125 0 12V2.64373C0 2.46873 0.028125 2.29998 0.084375 2.13748C0.140625 1.97498 0.225 1.82498 0.3375 1.68748L1.275 0.543735C1.4125 0.368735 1.58438 0.23436 1.79062 0.14061C1.99687 0.0468597 2.2125 -1.52588e-05 2.4375 -1.52588e-05H11.0625C11.2875 -1.52588e-05 11.5031 0.0468597 11.7094 0.14061C11.9156 0.23436 12.0875 0.368735 12.225 0.543735L13.1625 1.68748C13.275 1.82498 13.3594 1.97498 13.4156 2.13748C13.4719 2.29998 13.5 2.46873 13.5 2.64373V12C13.5 12.4125 13.3531 12.7656 13.0594 13.0594C12.7656 13.3531 12.4125 13.5 12 13.5H1.5ZM1.8 2.24998H11.7L11.0625 1.49998H2.4375L1.8 2.24998Z" fill="#1A1A1A"/>
</svg>
