<svg preserveAspectRatio="none" width="100%" height="100%" overflow="visible" style="display: block;" viewBox="0 0 13.5 13.5" fill="none" xmlns="http://www.w3.org/2000/svg">
<g id="Container">
<path id="Icon" d="M6.75 11.25L9.75 8.25L8.7 7.2L7.5 8.4V5.25H6V8.4L4.8 7.2L3.75 8.25L6.75 11.25V11.25M1.5 3.75V12V12V12H12V12V12V3.75H1.5V3.75M1.5 13.5C1.0875 13.5 0.734375 13.3531 0.440625 13.0594C0.146875 12.7656 0 12.4125 0 12V2.64375C0 2.46875 0.028125 2.3 0.084375 2.1375C0.140625 1.975 0.225 1.825 0.3375 1.6875L1.275 0.54375C1.4125 0.36875 1.58437 0.234375 1.79062 0.140625C1.99687 0.046875 2.2125 0 2.4375 0H11.0625C11.2875 0 11.5031 0.046875 11.7094 0.140625C11.9156 0.234375 12.0875 0.36875 12.225 0.54375L13.1625 1.6875C13.275 1.825 13.3594 1.975 13.4156 2.1375C13.4719 2.3 13.5 2.46875 13.5 2.64375V12C13.5 12.4125 13.3531 12.7656 13.0594 13.0594C12.7656 13.3531 12.4125 13.5 12 13.5H1.5V13.5M1.8 2.25H11.7L11.0625 1.5V1.5V1.5H2.4375V1.5V1.5L1.8 2.25V2.25M6.75 7.875V7.875V7.875V7.875V7.875V7.875V7.875V7.875V7.875V7.875" fill="var(--fill-0, #8D8D8B)"/>
</g>
</svg>
