<svg preserveAspectRatio="none" width="100%" height="100%" overflow="visible" style="display: block;" viewBox="0 0 13.5 15" fill="none" xmlns="http://www.w3.org/2000/svg">
<g id="Container">
<path id="Icon" d="M4.5 10.875C3.975 10.875 3.53125 10.6938 3.16875 10.3313C2.80625 9.96875 2.625 9.525 2.625 9C2.625 8.475 2.80625 8.03125 3.16875 7.66875C3.53125 7.30625 3.975 7.125 4.5 7.125C5.025 7.125 5.46875 7.30625 5.83125 7.66875C6.19375 8.03125 6.375 8.475 6.375 9C6.375 9.525 6.19375 9.96875 5.83125 10.3313C5.46875 10.6938 5.025 10.875 4.5 10.875V10.875M1.5 15C1.0875 15 0.734375 14.8531 0.440625 14.5594C0.146875 14.2656 0 13.9125 0 13.5V3C0 2.5875 0.146875 2.23437 0.440625 1.94062C0.734375 1.64687 1.0875 1.5 1.5 1.5H2.25V0H3.75V1.5H9.75V0H11.25V1.5H12C12.4125 1.5 12.7656 1.64687 13.0594 1.94062C13.3531 2.23437 13.5 2.5875 13.5 3V13.5C13.5 13.9125 13.3531 14.2656 13.0594 14.5594C12.7656 14.8531 12.4125 15 12 15H1.5V15M1.5 13.5H12V13.5V13.5V6H1.5V13.5V13.5V13.5V13.5M1.5 4.5H12V3V3V3H1.5V3V3V4.5V4.5M1.5 4.5V3V3V3V3V3V3V4.5V4.5V4.5" fill="var(--fill-0, #1A1A1A)"/>
</g>
</svg>
